{"title":"X Men Apocalypse 2016 1080p 3D HSBS Blu-Ray H.264 FiLELiST","uid":15795531,"size":14786842654,"categoryP":"video","categoryS":"3d","magnet":"?xt=urn:btih:c813f3ebfa0f56be90cb6acc9815697f26e58705&amp;dn=X+Men+Apocalypse+2016+1080p+3D+HSBS+Blu-Ray+H.264+FiLELiST&amp;tr=udp%3A%2F%2Ftracker.leechers-paradise.org%3A6969&amp;tr=udp%3A%2F%2Fzer0day.ch%3A1337&amp;tr=udp%3A%2F%2Fopen.demonii.com%3A1337&amp;tr=udp%3A%2F%2Ftracker.coppersurfer.tk%3A6969&amp;tr=udp%3A%2F%2Fexodus.desync.com%3A6969","seeders":19,"leechers":10,"uploader":"Alemao99","files":8,"time":1473453617,"description":"Since the beginning of civilization, he was worshiped as a god. Revelation (Oscar Isaac), the first and most powerful mutant Marvel X-Men universe, accumulated the powers of many other mutants, becoming immortal and invincible. Upon waking up after thousands of years, he's disillusioned with the world we are in and recruit a team of powerful mutants, including a daunting Magneto (Michael Fassbender), to purify humanity and create a new world order on which he will reign. As the Earth's fate is in the balance, Raven (Jennifer Lawrence), with the help of Professor Xavier (James McAvoy) to lead a team of X-Men young to stop his greatest enemy and save mankind from destruction.\r\n\r\n\r\nX-Men.Apocalypse.2016.1080p.3D.H SBS.Blu-Ray.H.264.FiLELiST.DUAL-CHC\r\n\r\n\r\nEnglish title: X-Men Apocalypse\r\nOriginal title: X-Men Apocalypse\r\nCountry: United States\r\nGenre: Action | adventure | Science fiction\r\nDuration: 2h 23mn\r\nRelease Year: 2016\r\nDirected by Bryan Singer\r\n\r\nVideo Quality: Blu-Ray\r\nResolution: 1920 x 800 pixels\r\nVideo Codec: AVC\r\nCodec Audio: 5.1 DTS / AC3 ​​5.1\r\nOriginal Language: English &amp; Portuguese\r\nLegend: 2D &amp; 3D Portuguese\r\nFile Format: MKV\r\nFile Size: 13.77 Gb\r\n\r\nIMDB: http://www.imdb.com/title/tt3385516/\r\n\r\n\r\nX-Men.Apocalypse.2016.1080p.3D.H SBS.Blu-Ray.H.264.FiLELiST.DUAL-CHC\r\n\r\nvideo\r\nID NO: 1\r\nFormat: AVC\r\nFormat / Info: Advanced Video Codec\r\nFormat profile:   \r\nFormat settings, CABAC: Yes\r\nFormat settings, reframes: 2 frames\r\nFormat settings, GOP: M = 3, N = 22\r\nCodec ID: V_MPEG4 / ISO / AVC\r\nDuration: 2h 23mn\r\nBit rate: 11.5 Mbps\r\nWidth: 1,920 pixels\r\nHeight: 800 pixels\r\nDisplay aspect ratio: 2.40: 1\r\nFrame rate: 23.976 fps\r\nColor space: YUV\r\nChroma subsampling: 4: 2: 0\r\nBit depth: 8 bits\r\nScan type: Progressive\r\nBits / (Pixel * Frame): 0.313\r\nStream size: 11.6 GiB (84%)\r\nDefault: Yes\r\nForced On\r\n\r\nAudio # 1\r\nID NO: 2\r\nFormat: AC-3\r\nFormat / Info: Audio Coding 3\r\nMode extension: CM (complete main)\r\nCodec ID: A_AC3\r\nDuration: 2h 23mn\r\nBit rate mode: Constant\r\nBit rate: 384 Kbps\r\nChannel (s): 6 channels\r\nChannel positions: Front: L C R, Side: LR, LFE\r\nSampling rate: 48.0 KHz\r\nBit depth: 16-bit\r\nCompression mode: Lossy\r\nDelay relative to video: 1s 0ms\r\nStream size: 395 MiB (3%)\r\nLanguage: Portuguese\r\nDefault: No\r\nForced On\r\n\r\nAudio # 2\r\nID: 3\r\nFormat: DTS\r\nFormat / Info: Digital Theater Systems\r\nFormat profile: ES\r\nCodec ID: A_DTS\r\nDuration: 2h 23mn\r\nBit rate mode: Constant\r\nBit rate: 510 Kbps 1\r\nChannel (s): 6 channels\r\nChannel positions: Front: L C R, Side: LR, LFE\r\nSampling rate: 48.0 KHz\r\nBit depth: 24-bit\r\nCompression mode: Lossy\r\nStream size: 1:52 GiB (11%)\r\nLanguage: Inglês\r\nDefault: No\r\nForced On","torrent":{"xt":"urn:btih:c813f3ebfa0f56be90cb6acc9815697f26e58705","amp;dn":"X+Men+Apocalypse+2016+1080p+3D+HSBS+Blu-Ray+H.264+FiLELiST","amp;tr":["udp%3A%2F%2Ftracker.leechers-paradise.org%3A6969","udp%3A%2F%2Fzer0day.ch%3A1337","udp%3A%2F%2Fopen.demonii.com%3A1337","udp%3A%2F%2Ftracker.coppersurfer.tk%3A6969","udp%3A%2F%2Fexodus.desync.com%3A6969"],"infoHash":"c813f3ebfa0f56be90cb6acc9815697f26e58705","infoHashBuffer":{"type":"Buffer","data":[200,19,243,235,250,15,86,190,144,203,106,204,152,21,105,127,38,229,135,5]},"announce":[],"urlList":[]}}